{"title":"Sidney Hayers - Circus.of.Horrors.1960.DVDRip.x264.bigape[CG]","uid":11161608,"size":1562657289,"categoryP":"video","categoryS":"movies","magnet":"?xt=urn:btih:2c44aeab9c173cb9fec0738a739747f3bee906e8&amp;dn=Sidney+Hayers+-+Circus.of.Horrors.1960.DVDRip.x264.bigape%5BCG%5D&amp;tr=udp%3A%2F%2Ftracker.openbittorrent.com%3A80&amp;tr=udp%3A%2F%2Fopen.demonii.com%3A1337&amp;tr=udp%3A%2F%2Ftracker.coppersurfer.tk%3A6969&amp;tr=udp%3A%2F%2Fexodus.desync.com%3A6969","seeders":1,"leechers":0,"uploader":"rpessoa","files":1,"time":1412555080,"description":"In 1947 England, a plastic surgeon must beat a hasty retreat to France when one of his patients has ghastly problems with her surgery. Once there, he operates on a circus owner's daughter, deformed by bombs from the war. Later he becomes the owner of the circus, and continues transforming disfigured women into the beautiful stars of his show. The police and a nosy reporter (as well as Scotland Yard) become interested when the women who want out of the circus begin dying in freak accidents, and they begin suspecting the good doctor is responsible. Written by Ed Sutton &lt;&lt;a class=&quot;__cf_email__&quot; href=&quot;/cdn-cgi/l/email-protection&quot; data-cfemail=&quot;5d382e28292932331d303433392e2d2f34333a733e3230&quot;&gt;[email&amp;#160;protected]&lt;/a&gt;&lt;script cf-hash='f9e31' type=&quot;text/javascript&quot;&gt;\n/* &lt;![CDATA[ */!function(){try{var t=&quot;currentScript&quot;in document?document.currentScript:function(){for(var t=document.getElementsByTagName(&quot;script&quot;),e=t.length;e--;)if(t[e].getAttribute(&quot;cf-hash&quot;))return t[e]}();if(t&amp;&amp;t.previousSibling){var e,r,n,i,c=t.previousSibling,a=c.getAttribute(&quot;data-cfemail&quot;);if(a){for(e=&quot;&quot;,r=parseInt(a.substr(0,2),16),n=2;a.length-n;n+=2)i=parseInt(a.substr(n,2),16)^r,e+=String.fromCharCode(i);e=document.createTextNode(e),c.parentNode.replaceChild(e,c)}}}catch(u){}}();/* ]]&gt; */&lt;/script&gt;&gt;\n &lt;a href=&quot;\nhttp://www.imdb.com/title/tt0053717/&quot; rel=&quot;nofollow&quot; target=&quot;_NEW&quot;&gt;\nhttp://www.imdb.com/title/tt0053717/&lt;/a&gt;\n\nGeneral\nUnique ID : 230006689197628850569463269528537815517 (0xAD09AD50C1DC7C70B475B15A7C4659DD)\nComplete name : Circus.of.Horrors.1960.DVDRip.x264.bigape[CG].mkv\nFormat : Matroska\nFile size : 1.46 GiB\nDuration : 1h 32mn\nOverall bit rate : 2 263 Kbps\nEncoded date : UTC 2012-10-19 13:51:14\nWriting application : mkvmerge v5.0.1 ('Es ist Sommer') built on Oct 9 2011 11:55:43\nWriting library : libebml v1.2.2 + libmatroska v1.3.0\n\nVideo\nID : 1\nFormat : AVC\nFormat/Info : Advanced Video Codec\nFormat profile : &lt;a class=&quot;__cf_email__&quot; href=&quot;/cdn-cgi/l/email-protection&quot; data-cfemail=&quot;ca82a3ada28a86fee4fb&quot;&gt;[email&amp;#160;protected]&lt;/a&gt;&lt;script cf-hash='f9e31' type=&quot;text/javascript&quot;&gt;\n/* &lt;![CDATA[ */!function(){try{var t=&quot;currentScript&quot;in document?document.currentScript:function(){for(var t=document.getElementsByTagName(&quot;script&quot;),e=t.length;e--;)if(t[e].getAttribute(&quot;cf-hash&quot;))return t[e]}();if(t&amp;&amp;t.previousSibling){var e,r,n,i,c=t.previousSibling,a=c.getAttribute(&quot;data-cfemail&quot;);if(a){for(e=&quot;&quot;,r=parseInt(a.substr(0,2),16),n=2;a.length-n;n+=2)i=parseInt(a.substr(n,2),16)^r,e+=String.fromCharCode(i);e=document.createTextNode(e),c.parentNode.replaceChild(e,c)}}}catch(u){}}();/* ]]&gt; */&lt;/script&gt;\nFormat settings, CABAC : Yes\nFormat settings, ReFrames : 16 frames\nCodec ID : V_MPEG4/ISO/AVC\nDuration : 1h 32mn\nBit rate : 1 878 Kbps\nWidth : 720 pixels\nHeight : 480 pixels\nDisplay aspect ratio : 16:9\nOriginal display aspect ratio : 16:9\nFrame rate : 23.976 fps\nStandard : NTSC\nColor space : YUV\nChroma subsampling : 4:2:0\nBit depth : 8 bits\nScan type : Progressive\nBits/(Pixel*Frame) : 0.227\nStream size : 1.18 GiB (81%)\nWriting library : x264 core 128 r2216 198a7ea\nEncoding settings : cabac=1 / ref=16 / deblock=1:-2:-1 / analyse=0x3:0x133 / me=umh / subme=10 / psy=1 / psy_rd=1.20:0.15 / mixed_ref=1 / me_range=24 / chroma_me=1 / trellis=2 / 8x8dct=1 / cqm=0 / deadzone=21,11 / fast_pskip=0 / chroma_qp_offset=-3 / threads=6 / lookahead_threads=1 / sliced_threads=0 / nr=0 / decimate=0 / interlaced=0 / bluray_compat=0 / constrained_intra=0 / bframes=8 / b_pyramid=2 / b_adapt=2 / b_bias=0 / direct=3 / weightb=1 / open_gop=0 / weightp=2 / keyint=250 / keyint_min=23 / scenecut=40 / intra_refresh=0 / rc_lookahead=60 / rc=2pass / mbtree=1 / bitrate=1878 / ratetol=1.0 / qcomp=0.60 / qpmin=0 / qpmax=69 / qpstep=4 / cplxblur=20.0 / qblur=0.5 / ip_ratio=1.40 / aq=1:0.80\nLanguage : English\n\nAudio #1\nID : 2\nFormat : AC-3\nFormat/Info : Audio Coding 3\nMode extension : CM (complete main)\nCodec ID : A_AC3\nDuration : 1h 32mn\nBit rate mode : Constant\nBit rate : 192 Kbps\nChannel(s) : 2 channels\nChannel positions : Front: L R\nSampling rate : 48.0 KHz\nBit depth : 16 bits\nCompression mode : Lossy\nStream size : 126 MiB (8%)\nTitle : Main track\nLanguage : English\n\nAudio #2\nID : 3\nFormat : AC-3\nFormat/Info : Audio Coding 3\nMode extension : CM (complete main)\nCodec ID : A_AC3\nDuration : 1h 32mn\nBit rate mode : Constant\nBit rate : 192 Kbps\nChannel(s) : 2 channels\nChannel positions : Front: L R\nSampling rate : 48.0 KHz\nBit depth : 16 bits\nCompression mode : Lossy\nStream size : 126 MiB (8%)\nTitle : French track\nLanguage : French","torrent":{"xt":"urn:btih:2c44aeab9c173cb9fec0738a739747f3bee906e8","amp;dn":"Sidney+Hayers+-+Circus.of.Horrors.1960.DVDRip.x264.bigape%5BCG%5D","amp;tr":["udp%3A%2F%2Ftracker.openbittorrent.com%3A80","udp%3A%2F%2Fopen.demonii.com%3A1337","udp%3A%2F%2Ftracker.coppersurfer.tk%3A6969","udp%3A%2F%2Fexodus.desync.com%3A6969"],"infoHash":"2c44aeab9c173cb9fec0738a739747f3bee906e8","infoHashBuffer":{"type":"Buffer","data":[44,68,174,171,156,23,60,185,254,192,115,138,115,151,71,243,190,233,6,232]},"announce":[],"urlList":[]}}